<svg width="1358" height="1082" viewBox="0 0 1358 1082" fill="none" xmlns="http://www.w3.org/2000/svg">
<path d="M1351.39 197.54C1557.51 158.469 1586.68 344.959 1575.5 443.088C1549.71 626.201 1461.83 537.761 1374.88 678.321C1287.94 818.88 1281.26 663.648 1192.58 623.57C1103.9 583.491 1118.56 799.125 957.28 721.487C796.003 643.849 836.473 317.579 1034.86 473.76C1233.24 629.942 1093.75 246.378 1351.39 197.54Z" stroke="#0D6F93" stroke-width="2"/>
<path d="M1321.16 259.475C1479.93 229.455 1502.44 372.919 1493.84 448.404C1474.01 589.261 1406.29 521.212 1339.34 629.324C1272.38 737.435 1267.21 618.02 1198.89 587.174C1130.57 556.328 1141.9 722.208 1017.65 662.457C893.396 602.705 924.516 351.726 1077.37 471.905C1230.22 592.084 1122.69 296.999 1321.16 259.475Z" stroke="#0D6F93" stroke-width="2"/>
<path d="M1379.58 140.223C1629.96 92.8382 1665.43 319.186 1651.86 438.284C1620.57 660.525 1513.79 553.17 1408.2 723.752C1302.6 894.334 1294.46 705.927 1186.73 657.268C1078.99 608.609 1096.84 870.327 900.905 776.069C704.974 681.812 754.081 285.824 995.104 475.417C1236.13 665.01 1066.6 199.453 1379.58 140.223Z" stroke="#0D6F93" stroke-width="2"/>
<path d="M1403.02 92.039C1690.06 37.5895 1730.67 297.395 1715.09 434.104C1679.16 689.211 1556.78 566.009 1435.69 761.836C1314.59 957.664 1305.3 741.404 1181.82 685.576C1058.33 629.748 1078.72 930.156 854.129 822.009C629.54 713.862 685.929 259.316 962.188 476.883C1238.45 694.45 1044.22 160.101 1403.02 92.039Z" stroke="#0D6F93" stroke-width="2"/>
<path d="M1436.97 23.2784C1777.42 -41.102 1825.67 266.547 1807.24 428.419C1764.7 730.479 1619.51 584.556 1475.94 816.396C1332.37 1048.24 1321.28 792.159 1174.79 726.013C1028.3 659.867 1052.58 1015.59 786.158 887.458C519.734 759.328 586.47 221.118 914.217 478.829C1241.96 736.54 1011.41 103.754 1436.97 23.2784Z" stroke="#0D6F93" stroke-width="2"/>
<path d="M1476.68 -56.926C1879.68 -132.855 1936.92 230.622 1915.16 421.852C1864.92 778.692 1692.99 606.241 1523.12 880.084C1353.25 1153.93 1340.03 851.391 1166.59 773.19C993.145 694.988 1022.03 1115.25 706.589 963.772C391.148 812.296 469.943 176.477 858.027 481.064C1246.11 785.652 972.938 37.9851 1476.68 -56.926Z" stroke="#0D6F93" stroke-width="2"/>
</svg>
