<svg width="2389" height="2461" fill="none" xmlns="http://www.w3.org/2000/svg">
<path d="M822.838 1196.14C647.285 1390.3 826.97 1542.55 938.757 1594.41C1150.56 1685.93 1113.46 1534.86 1319.68 1533.58C1525.9 1532.31 1364.89 1424.32 1379.83 1303.82C1394.76 1183.32 1614.92 1339.05 1637.02 1116.82C1659.12 894.583 1285.3 725.677 1322.74 1038.48C1360.19 1351.28 1042.28 953.446 822.838 1196.14Z" stroke="#0D6F93" stroke-width="2"/>
<path d="M908.455 1204.19C773.306 1353.8 911.494 1470.99 997.481 1510.89C1160.4 1581.29 1131.92 1464.95 1290.59 1463.88C1449.25 1462.82 1325.42 1379.71 1336.96 1286.89C1348.49 1194.08 1517.82 1313.94 1534.92 1142.76C1552.01 971.587 1264.46 841.645 1293.14 1082.55C1321.83 1323.45 1077.39 1017.17 908.455 1204.19Z" stroke="#0D6F93" stroke-width="2"/>
<path d="M743.472 1188.92C530.3 1424.82 748.348 1609.68 884.018 1672.63C1141.08 1783.71 1096.11 1600.22 1346.42 1598.59C1596.74 1596.95 1401.35 1465.85 1419.52 1319.48C1437.7 1173.11 1704.87 1362.19 1731.79 1092.24C1758.71 822.293 1305.01 617.282 1350.34 997.209C1395.67 1377.14 1009.94 894.039 743.472 1188.92Z" stroke="#0D6F93" stroke-width="2"/>
<path d="M676.916 1182.58C432.396 1452.94 682.742 1665.02 838.48 1737.26C1133.56 1864.76 1081.85 1654.35 1369.12 1652.62C1656.4 1650.88 1432.09 1500.46 1452.86 1332.65C1473.64 1164.84 1780.38 1381.76 1811.12 1072.27C1841.87 762.77 1321.06 527.463 1373.29 963.1C1425.52 1398.74 982.566 844.623 676.916 1182.58Z" stroke="#0D6F93" stroke-width="2"/>
<path d="M581.614 1174.06C291.812 1494.85 588.152 1746.16 772.548 1831.72C1121.93 1982.69 1060.84 1733.22 1401.08 1730.94C1741.32 1728.67 1475.77 1550.46 1500.5 1351.44C1525.24 1152.42 1888.36 1409.44 1925 1042.4C1961.65 675.354 1345.01 396.703 1406.54 913.269C1468.07 1429.83 943.867 773.064 581.614 1174.06Z" stroke="#0D6F93" stroke-width="2"/>
<path d="M470.376 1164.24C127.628 1544.16 477.595 1841.31 695.422 1942.4C1108.16 2120.77 1036.19 1825.58 1438.26 1822.59C1840.33 1819.6 1526.68 1608.92 1556.08 1373.36C1585.49 1137.8 2014.36 1441.66 2058 1007.23C2101.63 572.809 1373.18 243.575 1445.43 854.87C1517.68 1466.17 898.811 689.35 470.376 1164.24Z" stroke="#0D6F93" stroke-width="2"/>
</svg>
