<svg width="1109" height="842" viewBox="0 0 1109 842" fill="none" xmlns="http://www.w3.org/2000/svg">
<path d="M-43.0141 -55.1856C-132.506 94.6016 4.78695 170.746 84.6199 190.095C235.003 222.353 191.082 128.415 325.732 100.734C460.382 73.0524 341.065 23.4162 335.14 -57.3051C329.215 -138.026 493.421 -64.8778 478.938 -213.044C464.455 -361.21 198.073 -422.965 263.276 -223.344C328.48 -23.7228 68.8507 -242.42 -43.0141 -55.1856Z" stroke="#0D6F93" stroke-width="2"/>
<path d="M14.0055 -61.0743C-54.8708 54.3303 50.7285 112.957 112.138 127.845C227.816 152.661 194.05 80.3073 297.638 58.9544C401.227 37.6014 309.45 -0.608663 304.91 -62.7892C300.369 -124.97 426.673 -68.6571 415.564 -182.79C404.455 -296.923 199.547 -344.437 249.663 -190.678C299.779 -36.9184 100.101 -205.33 14.0055 -61.0743Z" stroke="#0D6F93" stroke-width="2"/>
<path d="M-95.841 -49.576C-204.491 132.401 -37.8731 224.869 59.0173 248.357C241.533 287.509 188.246 173.406 351.679 139.75C515.112 106.094 370.306 45.8237 363.132 -52.2329C355.958 -150.29 555.243 -61.4664 537.696 -241.451C520.15 -421.436 196.85 -496.396 275.946 -253.916C355.041 -11.4367 39.972 -277.047 -95.841 -49.576Z" stroke="#0D6F93" stroke-width="2"/>
<path d="M-140.178 -45.0575C-264.836 163.528 -73.5598 269.584 37.6608 296.538C247.169 341.477 185.971 210.652 373.554 172.118C561.138 133.583 394.907 64.4462 386.643 -47.9681C378.38 -160.382 607.151 -58.4967 586.958 -264.836C566.765 -471.176 195.65 -557.206 286.51 -279.204C377.369 -1.20166 15.6451 -305.79 -140.178 -45.0575Z" stroke="#0D6F93" stroke-width="2"/>
<path d="M-203.592 -38.2188C-351.288 209.233 -124.835 334.947 6.85414 366.873C254.92 420.089 182.507 264.944 404.646 219.163C626.784 173.381 429.973 91.4459 420.234 -41.8843C410.495 -175.214 681.348 -54.4614 657.52 -299.191C633.693 -543.92 194.279 -645.809 301.756 -316.11C409.233 13.5887 -18.9716 -347.534 -203.592 -38.2188Z" stroke="#0D6F93" stroke-width="2"/>
<path d="M-277.592 -30.1533C-452.205 262.842 -184.724 411.549 -29.1565 449.277C263.894 512.154 178.416 328.535 440.882 274.234C703.348 219.933 470.866 123.036 459.424 -34.7909C447.981 -192.617 767.921 -49.8042 739.887 -339.494C711.853 -629.183 192.76 -749.585 319.58 -359.352C446.4 30.8811 -59.3261 -396.397 -277.592 -30.1533Z" stroke="#0D6F93" stroke-width="2"/>
</svg>
